<svg width="144" height="35" viewBox="0 0 144 35" fill="none" xmlns="http://www.w3.org/2000/svg">
<path d="M0.5 34V0.0249975H0.545L18.23 25.09L15.935 24.595L33.53 0.0249975H33.62V34H28.355V12.04L28.67 14.785L16.88 31.525H16.79L4.73 14.785L5.63 12.265V34H0.5ZM47.3696 22.165C47.3696 23.425 47.6996 24.595 48.3596 25.675C49.0196 26.725 49.9046 27.58 51.0146 28.24C52.1546 28.87 53.3996 29.185 54.7496 29.185C56.2196 29.185 57.5096 28.87 58.6196 28.24C59.7596 27.58 60.6596 26.725 61.3196 25.675C61.9796 24.595 62.3096 23.425 62.3096 22.165V1.195H67.5296V22.3C67.5296 24.67 66.9596 26.77 65.8196 28.6C64.6796 30.4 63.1346 31.81 61.1846 32.83C59.2646 33.85 57.1196 34.36 54.7496 34.36C52.4096 34.36 50.2646 33.85 48.3146 32.83C46.3946 31.81 44.8646 30.4 43.7246 28.6C42.6146 26.77 42.0596 24.67 42.0596 22.3V1.195H47.3696V22.165ZM75.998 34V0.0249975H76.043L93.728 25.09L91.433 24.595L109.028 0.0249975H109.118V34H103.853V12.04L104.168 14.785L92.378 31.525H92.288L80.228 14.785L81.128 12.265V34H75.998ZM122.868 22.165C122.868 23.425 123.198 24.595 123.858 25.675C124.518 26.725 125.403 27.58 126.513 28.24C127.653 28.87 128.898 29.185 130.248 29.185C131.718 29.185 133.008 28.87 134.118 28.24C135.258 27.58 136.158 26.725 136.818 25.675C137.478 24.595 137.808 23.425 137.808 22.165V1.195H143.028V22.3C143.028 24.67 142.458 26.77 141.318 28.6C140.178 30.4 138.633 31.81 136.683 32.83C134.763 33.85 132.618 34.36 130.248 34.36C127.908 34.36 125.763 33.85 123.813 32.83C121.893 31.81 120.363 30.4 119.223 28.6C118.113 26.77 117.558 24.67 117.558 22.3V1.195H122.868V22.165Z" fill="#3F331A"/>
</svg>
